<?xml version="1.0" encoding="UTF-8"?>
<svg version="1.1" xmlns="http://www.w3.org/2000/svg" width="16" height="16" viewBox="0 0 512 512">
<path d="M0 0 C6.45057967 3.91933954 9.50795836 9.39054677 11.375 16.5625 C11.79353301 18.53699103 12.19220763 20.5158961 12.5625 22.5 C12.789375 23.634375 13.01625 24.76875 13.25 25.9375 C13.55026061 29.36047098 13.76052743 32.75332298 13.875 36.1875 C13.91238281 37.28449219 13.94976562 38.38148437 13.98828125 39.51171875 C13.5625 42.5 13.5625 42.5 11.73046875 44.89453125 C9.5625 46.5 9.5625 46.5 6.5625 46.5 C6.59559742 48.75062454 6.66507876 51.00073465 6.75 53.25 C6.78480469 54.50296875 6.81960938 55.7559375 6.85546875 57.046875 C7.73735267 61.35397657 9.21777514 61.85751131 12.5625 64.5 C14.06286243 69.82179838 13.28344346 74.3746134 11.9375 79.625 C11.75654785 80.36129639 11.5755957 81.09759277 11.38916016 81.85620117 C9.29098771 90.06856538 6.3912413 97.93012931 2.5625 105.5 C3.84898437 105.46519531 5.13546875 105.43039063 6.4609375 105.39453125 C11.52492878 105.39947849 16.24221156 106.15190871 21.1875 107.1875 C22.05995361 107.36829102 22.93240723 107.54908203 23.83129883 107.73535156 C55.35720483 114.51710395 85.16948915 132.33415682 105.5625 157.5 C106.71878906 158.89992187 106.71878906 158.89992187 107.8984375 160.328125 C114.50903414 168.50164729 119.74195044 177.17278647 124.5625 186.5 C124.88347656 187.11601074 125.20445312 187.73202148 125.53515625 188.36669922 C142.47324197 221.33041101 147.87363496 261.88635264 150.5625 298.5 C150.61889648 299.25345703 150.67529297 300.00691406 150.73339844 300.78320312 C151.10996655 306.01950532 151.3699535 311.25395224 151.5625 316.5 C151.59649902 317.30872559 151.63049805 318.11745117 151.66552734 318.95068359 C151.7600018 321.40462175 151.82248585 323.85733841 151.875 326.3125 C151.90480957 327.05967285 151.93461914 327.8068457 151.96533203 328.57666016 C152.00454404 332.21670261 151.65120398 334.349027 149.79296875 337.51171875 C147.5625 339.5 147.5625 339.5 143.5625 339.5 C143.62235379 341.79240007 143.71109027 344.08406206 143.8125 346.375 C143.85890625 347.65117187 143.9053125 348.92734375 143.953125 350.2421875 C144.15421875 351.31726563 144.3553125 352.39234375 144.5625 353.5 C146.43159513 354.83046034 146.43159513 354.83046034 148.5625 355.5 C151.01077089 359.17240633 150.69368623 361.60970465 150.375 365.8125 C150.29717285 366.93205078 150.29717285 366.93205078 150.21777344 368.07421875 C147.00853268 409.94880402 139.41586133 464.09354872 106.5625 493.5 C96.49275935 501.51075214 85.90380366 506.08858273 73.5625 509.5 C72.94882568 509.676521 72.33515137 509.85304199 71.70288086 510.03491211 C54.18650792 513.84108189 33.87026881 509.7062237 16.5625 506.5 C15.59812012 506.32339844 14.63374023 506.14679688 13.64013672 505.96484375 C-48.53934083 494.25536934 -110.77822682 466.82873348 -162.4375 430.5 C-163.46875 429.77554687 -164.5 429.05109375 -165.5625 428.3046875 C-191.48317025 409.47170052 -211.63355765 383.40399029 -222.14453125 352.97265625 C-222.53423671 349.68354213 -221.72712115 347.52031794 -220.4375 344.5 C-219.7775 343.84 -219.1175 343.18 -218.4375 342.5 C-218.41643406 339.13576801 -218.41643406 339.13576801 -218.8125 335.375 C-218.92335938 334.09367187 -219.03421875 332.81234375 -219.1484375 331.4921875 C-219.24382812 330.50476563 -219.33921875 329.51734375 -219.4375 328.5 C-220.39011719 328.36980469 -221.34273438 328.23960937 -222.32421875 328.10546875 C-225.4375 327.5 -225.4375 327.5 -227.25 325.8125 C-235.0354952 310.65127251 -229.46728343 284.41710144 -225.4375 268.5 C-226.01491943 268.51571045 -226.59233887 268.5314209 -227.18725586 268.54760742 C-237.23641864 268.78348457 -247.18505202 268.92700195 -257.125 267.25 C-258.17385376 267.08600708 -258.17385376 267.08600708 -259.24389648 266.91870117 C-262.3107575 266.3355036 -264.14702829 265.78930516 -266.3828125 263.5625 C-267.66418701 261.05670096 -267.66895367 259.27744404 -267.4375 256.5 C-268.448125 256.355625 -269.45875 256.21125 -270.5 256.0625 C-273.05312479 255.69776789 -275.59769876 255.26402737 -278.125 254.75 C-281.40693615 254.1303344 -281.40693615 254.1303344 -283.375 256 C-286.08070513 257.96778555 -287.91000193 257.55007589 -291.12182617 257.07470703 C-295.46327208 255.99724117 -299.23032118 253.83618232 -303.125 251.6875 C-303.95322266 251.24857422 -304.78144531 250.80964844 -305.63476562 250.35742188 C-313.33153435 246.21016379 -319.36461856 242.30505155 -322.03125 233.55078125 C-323.33106983 226.98919076 -322.75104341 221.37886734 -319.4375 215.5 C-317.26901987 212.66606037 -314.89897506 210.08081931 -312.4375 207.5 C-311.55771484 206.54287109 -311.55771484 206.54287109 -310.66015625 205.56640625 C-297.10711738 191.32568676 -279.95233033 181.95388473 -262.4375 173.5 C-263.07816406 172.76136719 -263.71882813 172.02273437 -264.37890625 171.26171875 C-280.96272403 151.90161371 -280.96272403 151.90161371 -280.765625 139.484375 C-280.11435227 133.56089448 -277.95100137 128.82135354 -273.546875 124.75390625 C-261.66338085 116.75540057 -245.37139037 113.79479948 -231.4375 111.5 C-230.36757812 111.31566406 -229.29765625 111.13132812 -228.1953125 110.94140625 C-209.31792727 108.72400029 -187.71821878 109.85964061 -170.4375 118.5 C-177.18716327 108.8923712 -183.97478006 99.31620846 -190.89526367 89.83056641 C-192.42212912 87.72915254 -193.93448442 85.61853394 -195.4375 83.5 C-195.99574463 82.71471924 -196.55398926 81.92943848 -197.12915039 81.12036133 C-197.6730542 80.3342749 -198.21695801 79.54818848 -198.77734375 78.73828125 C-199.27097412 78.02969971 -199.76460449 77.32111816 -200.27319336 76.59106445 C-202.31232028 72.92884552 -202.20364678 70.60933274 -201.4375 66.5 C-199.375 63.9375 -199.375 63.9375 -196.4375 62.5 C-193 62.3125 -193 62.3125 -189.4375 63.5 C-184.8935311 67.75769886 -181.40027792 73.21212356 -177.875 78.3125 C-176.83556862 79.80143316 -175.79516803 81.28969008 -174.75390625 82.77734375 C-173.94783936 83.92952393 -173.94783936 83.92952393 -173.12548828 85.10498047 C-169.67314076 90.00337925 -166.14592518 94.84803296 -162.62670898 99.69848633 C-161.84855835 100.77199341 -161.84855835 100.77199341 -161.0546875 101.8671875 C-160.59690918 102.49737793 -160.13913086 103.12756836 -159.66748047 103.77685547 C-158.55937193 105.32926318 -157.49549145 106.91301282 -156.4375 108.5 C-156.42291748 107.9423999 -156.40833496 107.3847998 -156.39331055 106.81030273 C-155.39040571 72.31108521 -144.24425271 40.99420453 -120.4375 15.5 C-114.67762385 10.58272582 -109.09925369 10.08227798 -101.73046875 10.1640625 C-94.40761522 10.91111517 -89.85352999 15.49608999 -85.3125 20.97265625 C-74.4375 35.63125 -74.4375 35.63125 -74.4375 39.5 C-71.78900939 36.87094786 -69.1673356 34.22570021 -66.59765625 31.51953125 C-52.19473758 16.50124269 -22.32872071 -9.66146569 0 0 Z " fill="#FE0B37" transform="translate(341.4375,1.5)"/>
<path d="M0 0 C6.45057967 3.91933954 9.50795836 9.39054677 11.375 16.5625 C11.79353301 18.53699103 12.19220763 20.5158961 12.5625 22.5 C12.789375 23.634375 13.01625 24.76875 13.25 25.9375 C13.55026061 29.36047098 13.76052743 32.75332298 13.875 36.1875 C13.91238281 37.28449219 13.94976562 38.38148437 13.98828125 39.51171875 C13.5625 42.5 13.5625 42.5 11.73046875 44.89453125 C9.5625 46.5 9.5625 46.5 6.5625 46.5 C6.59559742 48.75062454 6.66507876 51.00073465 6.75 53.25 C6.78480469 54.50296875 6.81960938 55.7559375 6.85546875 57.046875 C7.73735267 61.35397657 9.21777514 61.85751131 12.5625 64.5 C14.06286243 69.82179838 13.28344346 74.3746134 11.9375 79.625 C11.75654785 80.36129639 11.5755957 81.09759277 11.38916016 81.85620117 C9.29098771 90.06856538 6.3912413 97.93012931 2.5625 105.5 C3.84898437 105.46519531 5.13546875 105.43039063 6.4609375 105.39453125 C11.52492878 105.39947849 16.24221156 106.15190871 21.1875 107.1875 C22.05995361 107.36829102 22.93240723 107.54908203 23.83129883 107.73535156 C55.35720483 114.51710395 85.16948915 132.33415682 105.5625 157.5 C106.71878906 158.89992187 106.71878906 158.89992187 107.8984375 160.328125 C114.50903414 168.50164729 119.74195044 177.17278647 124.5625 186.5 C124.88347656 187.11601074 125.20445312 187.73202148 125.53515625 188.36669922 C142.47324197 221.33041101 147.87363496 261.88635264 150.5625 298.5 C150.61889648 299.25345703 150.67529297 300.00691406 150.73339844 300.78320312 C151.10996655 306.01950532 151.3699535 311.25395224 151.5625 316.5 C151.59649902 317.30872559 151.63049805 318.11745117 151.66552734 318.95068359 C151.7600018 321.40462175 151.82248585 323.85733841 151.875 326.3125 C151.90480957 327.05967285 151.93461914 327.8068457 151.96533203 328.57666016 C152.00451638 332.21413527 151.6506347 334.34966405 149.796875 337.51171875 C147.5625 339.5 147.5625 339.5 145.52734375 339.875 C140.0802683 338.86744847 140.0802683 338.86744847 137.625 337.125 C135.32768264 333.61145581 135.42715351 330.36827706 135.38671875 326.296875 C135.35505615 324.38406738 135.35505615 324.38406738 135.32275391 322.43261719 C135.31157532 321.75179077 135.30039673 321.07096436 135.28887939 320.36950684 C134.99477845 304.33661939 133.4096796 288.7738157 131.06347656 272.90820312 C130.60977647 269.82162747 130.18497312 266.73305191 129.7734375 263.640625 C128.59106465 254.95303414 127.00954685 246.6401275 124.58984375 238.203125 C123.66979726 234.88675972 122.89521792 231.58078348 122.16259766 228.22070312 C114.47718243 193.30853941 93.7745119 161.82371257 63.65673828 142.26220703 C37.78096622 125.80713503 6.26990753 116.46270126 -24.47265625 122.7578125 C-44.35005191 127.73370865 -59.86874175 136.63443394 -76.21875 148.85791016 C-79.74692969 151.46910477 -83.34185499 153.98296511 -86.9375 156.5 C-92.80332619 160.62253856 -98.6318584 164.79315816 -104.4375 169 C-110.2431656 173.20685924 -116.07271719 177.37595272 -121.9375 181.5 C-130.05855726 187.21286699 -138.10955857 193.01931926 -146.14941406 198.84570312 C-148.4682404 200.52222545 -150.79197189 202.19172765 -153.1171875 203.859375 C-180.33489806 223.39231993 -202.16474518 242.71275879 -210.4375 276.5 C-210.61265137 277.13969727 -210.78780273 277.77939453 -210.96826172 278.43847656 C-213.29715161 288.05735275 -212.79588376 298.10262561 -212.81835938 307.93945312 C-212.82786213 310.41587042 -212.86156197 312.89104791 -212.8984375 315.3671875 C-212.89339203 316.12450165 -212.88834656 316.8818158 -212.88314819 317.66207886 C-212.94843397 321.14800221 -213.15416689 323.12603618 -215.28759766 325.94189453 C-218.1432341 328.01146889 -219.90010239 328.57219179 -223.4375 328.5 C-226.64575242 326.14728156 -228.19299825 324.60389286 -229.06152344 320.68261719 C-231.11744991 303.27933311 -229.72721832 285.44380922 -225.4375 268.5 C-226.01491943 268.51571045 -226.59233887 268.5314209 -227.18725586 268.54760742 C-237.23641864 268.78348457 -247.18505202 268.92700195 -257.125 267.25 C-258.17385376 267.08600708 -258.17385376 267.08600708 -259.24389648 266.91870117 C-262.3107575 266.3355036 -264.14702829 265.78930516 -266.3828125 263.5625 C-267.66418701 261.05670096 -267.66895367 259.27744404 -267.4375 256.5 C-268.448125 256.355625 -269.45875 256.21125 -270.5 256.0625 C-273.05312479 255.69776789 -275.59769876 255.26402737 -278.125 254.75 C-281.40693615 254.1303344 -281.40693615 254.1303344 -283.375 256 C-286.08070513 257.96778555 -287.91000193 257.55007589 -291.12182617 257.07470703 C-295.46327208 255.99724117 -299.23032118 253.83618232 -303.125 251.6875 C-303.95322266 251.24857422 -304.78144531 250.80964844 -305.63476562 250.35742188 C-313.33153435 246.21016379 -319.36461856 242.30505155 -322.03125 233.55078125 C-323.33106983 226.98919076 -322.75104341 221.37886734 -319.4375 215.5 C-317.26901987 212.66606037 -314.89897506 210.08081931 -312.4375 207.5 C-311.55771484 206.54287109 -311.55771484 206.54287109 -310.66015625 205.56640625 C-297.10711738 191.32568676 -279.95233033 181.95388473 -262.4375 173.5 C-263.07816406 172.76136719 -263.71882813 172.02273437 -264.37890625 171.26171875 C-280.96272403 151.90161371 -280.96272403 151.90161371 -280.765625 139.484375 C-280.11435227 133.56089448 -277.95100137 128.82135354 -273.546875 124.75390625 C-261.66338085 116.75540057 -245.37139037 113.79479948 -231.4375 111.5 C-230.36757812 111.31566406 -229.29765625 111.13132812 -228.1953125 110.94140625 C-209.31792727 108.72400029 -187.71821878 109.85964061 -170.4375 118.5 C-177.18716327 108.8923712 -183.97478006 99.31620846 -190.89526367 89.83056641 C-192.42212912 87.72915254 -193.93448442 85.61853394 -195.4375 83.5 C-195.99574463 82.71471924 -196.55398926 81.92943848 -197.12915039 81.12036133 C-197.6730542 80.3342749 -198.21695801 79.54818848 -198.77734375 78.73828125 C-199.27097412 78.02969971 -199.76460449 77.32111816 -200.27319336 76.59106445 C-202.31232028 72.92884552 -202.20364678 70.60933274 -201.4375 66.5 C-199.375 63.9375 -199.375 63.9375 -196.4375 62.5 C-193 62.3125 -193 62.3125 -189.4375 63.5 C-184.8935311 67.75769886 -181.40027792 73.21212356 -177.875 78.3125 C-176.83556862 79.80143316 -175.79516803 81.28969008 -174.75390625 82.77734375 C-173.94783936 83.92952393 -173.94783936 83.92952393 -173.12548828 85.10498047 C-169.67314076 90.00337925 -166.14592518 94.84803296 -162.62670898 99.69848633 C-161.84855835 100.77199341 -161.84855835 100.77199341 -161.0546875 101.8671875 C-160.59690918 102.49737793 -160.13913086 103.12756836 -159.66748047 103.77685547 C-158.55937193 105.32926318 -157.49549145 106.91301282 -156.4375 108.5 C-156.42291748 107.9423999 -156.40833496 107.3847998 -156.39331055 106.81030273 C-155.39040571 72.31108521 -144.24425271 40.99420453 -120.4375 15.5 C-114.67762385 10.58272582 -109.09925369 10.08227798 -101.73046875 10.1640625 C-94.40761522 10.91111517 -89.85352999 15.49608999 -85.3125 20.97265625 C-74.4375 35.63125 -74.4375 35.63125 -74.4375 39.5 C-71.78900939 36.87094786 -69.1673356 34.22570021 -66.59765625 31.51953125 C-52.19473758 16.50124269 -22.32872071 -9.66146569 0 0 Z " fill="#010100" transform="translate(341.4375,1.5)"/>
<path d="M0 0 C1.67776955 3.35553911 -0.24106309 6.71033927 -1.3125 10.125 C-4.9968726 22.09133835 -7.19986449 33.04537132 -7.1875 45.625 C-7.18669434 46.49237793 -7.18588867 47.35975586 -7.18505859 48.25341797 C-7.11264304 55.96780456 -6.32280581 63.39158591 -5 71 C-4.84402344 71.91007812 -4.68804687 72.82015625 -4.52734375 73.7578125 C-4.07398143 76.18844412 -3.55942676 78.59168763 -3 81 C-2.80792969 81.83402344 -2.61585938 82.66804688 -2.41796875 83.52734375 C5.26700846 114.13242841 23.97796061 141.93385968 49 161 C49.85722656 161.70769531 50.71445313 162.41539062 51.59765625 163.14453125 C55.98294022 166.79868939 55.98294022 166.79868939 61.34375 167.99609375 C62.84394253 167.71095442 64.34155895 167.41184538 65.8359375 167.09765625 C69.48906155 166.93280408 71.52635976 168.87911668 74.203125 171.17578125 C81 178.07608696 81 178.07608696 81 183 C81.72203613 183.27763184 82.44407227 183.55526367 83.18798828 183.84130859 C85.87906842 184.95017006 88.41528613 186.18822368 90.9921875 187.5390625 C91.93586182 188.03269287 92.87953613 188.52632324 93.85180664 189.03491211 C94.84946045 189.55964111 95.84711426 190.08437012 96.875 190.625 C97.9158374 191.16842041 98.9566748 191.71184082 100.02905273 192.27172852 C108.6886338 196.80206874 108.6886338 196.80206874 112.79296875 199.11328125 C140.76105544 214.71793655 172.49958996 226.61786959 203.49902344 234.36474609 C206.00087656 235.00022265 208.48880058 235.67485325 210.9765625 236.36328125 C221.23917782 239.1892784 231.46913881 241.4406035 242 243 C242.68771484 243.10441406 243.37542969 243.20882812 244.08398438 243.31640625 C268.76756702 247.28065281 268.76756702 247.28065281 292 241 C299.83994816 229.63207517 303.15298402 215.06005041 307 202 C307.25555664 201.13648926 307.51111328 200.27297852 307.77441406 199.38330078 C313.25391481 180.57085629 316.14310956 161.3648678 317.87353516 141.87109375 C317.97843262 140.78699219 318.08333008 139.70289063 318.19140625 138.5859375 C318.27592041 137.6273584 318.36043457 136.6687793 318.44750977 135.68115234 C319.091141 132.55770637 320.10158673 130.55590978 322 128 C327.70398352 125.6146978 327.70398352 125.6146978 331.3125 126.6875 C333 128 333 128 335 131 C335.0632934 133.49858236 335.00069619 135.8305915 334.8125 138.3125 C334.73467285 139.43205078 334.73467285 139.43205078 334.65527344 140.57421875 C331.44603268 182.44880402 323.85336133 236.59354872 291 266 C280.93025935 274.01075214 270.34130366 278.58858273 258 282 C257.38632568 282.176521 256.77265137 282.35304199 256.14038086 282.53491211 C238.62400792 286.34108189 218.30776881 282.2062237 201 279 C200.03562012 278.82339844 199.07124023 278.64679688 198.07763672 278.46484375 C135.89815917 266.75536934 73.65927318 239.32873348 22 203 C20.96875 202.27554688 19.9375 201.55109375 18.875 200.8046875 C-7.04567025 181.97170052 -27.19605765 155.90399029 -37.70703125 125.47265625 C-38.09673671 122.18354213 -37.28962115 120.02031794 -36 117 C-35.01 116.01 -35.01 116.01 -34 115 C-34.01747888 112.40730017 -34.13768592 109.9474846 -34.375 107.375 C-34.43171875 106.66859375 -34.4884375 105.9621875 -34.546875 105.234375 C-34.68840921 103.48878639 -34.84297387 101.74426327 -35 100 C-32.525 99.01 -32.525 99.01 -30 98 C-29.9906543 96.90236328 -29.98130859 95.80472656 -29.97167969 94.67382812 C-29.93118552 90.52093929 -29.86527758 86.36874614 -29.79248047 82.21630859 C-29.76460959 80.43417436 -29.74323051 78.65192429 -29.72900391 76.86962891 C-29.62835716 64.95976362 -28.45625367 54.42897675 -25 43 C-24.68949707 41.91275635 -24.37899414 40.8255127 -24.05908203 39.70532227 C-19.79078111 25.10371467 -11.10380218 10.49291339 0 0 Z " fill="#C50023" transform="translate(157,229)"/>
<path d="M0 0 C3.20136004 5.14942169 3.81773225 10.81474733 4.625 16.75 C4.86500726 18.4326041 5.10710651 20.11491147 5.3515625 21.796875 C5.45291504 22.53260742 5.55426758 23.26833984 5.65869141 24.02636719 C5.98424772 26.20264714 5.98424772 26.20264714 7 29 C8.98 29.99 10.96 30.98 13 32 C13 36.95 13 41.9 13 47 C11.89011719 47.34160156 10.78023437 47.68320312 9.63671875 48.03515625 C6.31290725 49.46825192 6.09046392 49.78493014 4.58203125 53.37109375 C4.29754795 54.7209687 4.04237719 56.0772612 3.8125 57.4375 C3.50740316 58.89006181 3.198776 60.34188634 2.88671875 61.79296875 C2.74024902 62.50888184 2.5937793 63.22479492 2.44287109 63.96240234 C0.43350997 73.20723584 -3.19735565 85.19735565 -10 92 C-11.86300164 92.34380314 -13.74250103 92.59995979 -15.625 92.8125 C-28.27109159 94.59914429 -40.20206957 99.25254512 -52 104 C-51.95359375 103.25234375 -51.9071875 102.5046875 -51.859375 101.734375 C-51.51529879 95.74394182 -51.51529879 95.74394182 -53.625 90.3125 C-56.68970874 88.61884517 -58.54818157 88.48589938 -62 89 C-65.30623359 91.15731742 -65.70163917 94.16711213 -66.49023438 97.8671875 C-66.63783203 98.61226563 -66.78542969 99.35734375 -66.9375 100.125 C-68.80464839 109.50260627 -70.73296378 117.12300308 -78.89013672 122.80517578 C-79.6482666 123.30259277 -80.40639648 123.80000977 -81.1875 124.3125 C-81.97398926 124.85374512 -82.76047852 125.39499023 -83.57080078 125.95263672 C-85.21174652 127.08117548 -86.85832717 128.20156172 -88.51025391 129.31396484 C-91.75362309 131.51034723 -94.94787826 133.77242459 -98.1418457 136.03979492 C-100.87866184 137.98252447 -103.62619317 139.90980777 -106.37402344 141.83691406 C-107.72455943 142.80297314 -109.0427286 143.81409043 -110.3515625 144.8359375 C-112 146 -112 146 -114 146 C-129.81506356 125.0460367 -136.84829563 98.57193559 -133.71142578 72.61181641 C-130.07795978 50.4647438 -118.35742681 29.97053721 -104 13 C-100.76187273 10.84124849 -99.75533001 10.51675598 -96 11 C-81.86686283 21.51251327 -72.72230989 46.49750334 -68.203125 62.890625 C-67.95046875 63.79296875 -67.6978125 64.6953125 -67.4375 65.625 C-67.22996094 66.42164062 -67.02242188 67.21828125 -66.80859375 68.0390625 C-66.06506434 70.3594512 -66.06506434 70.3594512 -63 72 C-59.42823885 71.91832511 -59.42823885 71.91832511 -56 71 C-53.46824322 67.20236482 -53.62692487 65.5269482 -54 61 C-55.08886718 57.0442532 -56.58067462 53.23816923 -58.04296875 49.40820312 C-58.32011719 48.64056641 -58.59726562 47.87292969 -58.8828125 47.08203125 C-59.14465332 46.39343018 -59.40649414 45.7048291 -59.67626953 44.99536133 C-60.23739525 41.53677873 -58.32897691 39.45678089 -56.37109375 36.73828125 C-44.98015226 22.44782738 -31.99895849 11.98363328 -16 3.25 C-14.81688232 2.5859314 -14.81688232 2.5859314 -13.60986328 1.90844727 C-8.82464238 -0.602141 -5.33677294 -2.05465758 0 0 Z " fill="#4BB867" transform="translate(335,16)"/>
<path d="M0 0 C4.36264413 1.22460186 5.0499801 2.29708232 7.5625 6 C8.94481238 8.75886362 10.12701198 11.5895585 11.3125 14.4375 C37.10252701 74.14458716 101.22134803 103.99425772 158.5625 127 C186.67898043 138.03012639 215.64400089 146.65421939 245.5625 151 C246.25714355 151.10441406 246.95178711 151.20882812 247.66748047 151.31640625 C270.87769081 154.76222559 291.22049528 153.05164453 310.5625 139 C326.48670611 126.08570038 331.03232487 106.86471978 336.5625 88 C336.83223633 87.08959961 337.10197266 86.17919922 337.37988281 85.24121094 C342.86339261 66.4904271 345.7109769 47.3044031 347.43603516 27.87109375 C347.54093262 26.78699219 347.64583008 25.70289063 347.75390625 24.5859375 C347.83842041 23.6273584 347.92293457 22.6687793 348.01000977 21.68115234 C348.653641 18.55770637 349.66408673 16.55590978 351.5625 14 C357.26648352 11.6146978 357.26648352 11.6146978 360.875 12.6875 C362.5625 14 362.5625 14 364.5625 17 C364.6257934 19.49858236 364.56319619 21.8305915 364.375 24.3125 C364.29717285 25.43205078 364.29717285 25.43205078 364.21777344 26.57421875 C361.00853268 68.44880402 353.41586133 122.59354872 320.5625 152 C310.49275935 160.01075214 299.90380366 164.58858273 287.5625 168 C286.94882568 168.176521 286.33515137 168.35304199 285.70288086 168.53491211 C268.18650792 172.34108189 247.87026881 168.2062237 230.5625 165 C229.59812012 164.82339844 228.63374023 164.64679688 227.64013672 164.46484375 C165.46065917 152.75536934 103.22177318 125.32873348 51.5625 89 C50.53125 88.27554688 49.5 87.55109375 48.4375 86.8046875 C22.51682975 67.97170052 2.36644235 41.90399029 -8.14453125 11.47265625 C-8.60921993 7.55068377 -7.28393426 4.38102432 -5.25 1.0625 C-3.4375 0 -3.4375 0 0 0 Z " fill="#010000" transform="translate(127.4375,343)"/>
<path d="M0 0 C1.15886719 -0.01224609 2.31773437 -0.02449219 3.51171875 -0.03710938 C28.63073919 -0.07968399 49.96041546 10.78018985 67.5 28.1875 C68.19996094 28.85007813 68.89992188 29.51265625 69.62109375 30.1953125 C73.46273332 33.87998185 76.704045 37.64407312 79.5 42.1875 C78.35600003 45.61949991 77.72662783 45.985539 74.80859375 47.90234375 C74.03588135 48.41812988 73.26316895 48.93391602 72.46704102 49.46533203 C71.21491821 50.28686768 71.21491821 50.28686768 69.9375 51.125 C62.00983096 56.42815575 54.31439791 61.95508052 46.72265625 67.7265625 C46.15208496 68.15541748 45.58151367 68.58427246 44.99365234 69.02612305 C43.38097474 70.24609397 43.38097474 70.24609397 41.54296875 71.99609375 C38.41369418 73.8210053 35.27249203 73.67577466 31.75 73.625 C30.99847656 73.61597656 30.24695313 73.60695313 29.47265625 73.59765625 C5.4859737 72.87443969 -14.51379538 60.25698881 -31.5 44.1875 C-32.71816406 43.06601563 -32.71816406 43.06601563 -33.9609375 41.921875 C-38.98931301 37.13143524 -43.42237448 32.01513884 -47.625 26.5 C-48.110896 25.88237793 -48.59679199 25.26475586 -49.09741211 24.62841797 C-51.49231723 21.38113311 -52.45697647 19.51700564 -52.9921875 15.41796875 C-52.5 12.1875 -52.5 12.1875 -51.296875 10.37109375 C-36.90403653 0.89059363 -16.60953539 0.00923778 0 0 Z " fill="#4BB867" transform="translate(129.5,127.8125)"/>
<path d="M0 0 C3.20136004 5.14942169 3.81773225 10.81474733 4.625 16.75 C4.86500726 18.4326041 5.10710651 20.11491147 5.3515625 21.796875 C5.45291504 22.53260742 5.55426758 23.26833984 5.65869141 24.02636719 C5.98424772 26.20264714 5.98424772 26.20264714 7 29 C8.98 29.99 10.96 30.98 13 32 C13 36.95 13 41.9 13 47 C11.89011719 47.34160156 10.78023438 47.68320312 9.63671875 48.03515625 C6.31290725 49.46825192 6.09046392 49.78493014 4.58203125 53.37109375 C4.29754795 54.7209687 4.04237719 56.0772612 3.8125 57.4375 C3.50740316 58.89006181 3.198776 60.34188634 2.88671875 61.79296875 C2.66701416 62.86683838 2.66701416 62.86683838 2.44287109 63.96240234 C0.43350997 73.20723584 -3.19735565 85.19735565 -10 92 C-11.86300164 92.34380314 -13.74250103 92.59995979 -15.625 92.8125 C-28.27109159 94.59914429 -40.20206957 99.25254512 -52 104 C-51.95359375 103.25234375 -51.9071875 102.5046875 -51.859375 101.734375 C-51.4520747 95.72494716 -51.4520747 95.72494716 -53.8125 90.4375 C-54.534375 89.963125 -55.25625 89.48875 -56 89 C-56.99 88.34 -57.98 87.68 -59 87 C-59.71398962 82.30551823 -59.61398289 77.7035475 -59 73 C-56.5 70.0625 -56.5 70.0625 -54 68 C-53.21497789 61.17903011 -55.66075585 55.64757351 -58.04296875 49.40820312 C-58.32011719 48.64056641 -58.59726562 47.87292969 -58.8828125 47.08203125 C-59.14465332 46.39343018 -59.40649414 45.7048291 -59.67626953 44.99536133 C-60.23739525 41.53677873 -58.32897691 39.45678089 -56.37109375 36.73828125 C-44.98015226 22.44782738 -31.99895849 11.98363328 -16 3.25 C-15.21125488 2.8072876 -14.42250977 2.3645752 -13.60986328 1.90844727 C-8.82464238 -0.602141 -5.33677294 -2.05465758 0 0 Z " fill="#358A4B" transform="translate(335,16)"/>
<path d="M0 0 C1.83344817 1.29703686 3.62011468 2.6609957 5.375 4.0625 C20.27651231 15.55657003 36.59725795 22.40768392 55 26 C54.195625 26.928125 53.39125 27.85625 52.5625 28.8125 C52.01207031 29.46089844 51.46164063 30.10929687 50.89453125 30.77734375 C49.59410496 32.30299852 48.27806621 33.81544141 46.94921875 35.31640625 C39.73949669 43.70427117 33.94575308 53.10849384 29 63 C23.19343144 65.08774705 17.22548798 65.23962496 11.1328125 65.0546875 C9.48959116 65.02943322 7.84636161 65.00470859 6.203125 64.98046875 C3.64849399 64.93058133 1.09430393 64.87420564 -1.45996094 64.80810547 C-3.94989892 64.74787268 -6.43925627 64.71224937 -8.9296875 64.6796875 C-9.69529999 64.65276825 -10.46091248 64.625849 -11.24972534 64.59811401 C-13.65199623 64.52996862 -13.65199623 64.52996862 -17 65 C-19.05149281 66.85848165 -19.05149281 66.85848165 -20 69 C-24.96916636 68.48594831 -29.29026351 67.76615118 -34 66 C-34.144375 64.906875 -34.28875 63.81375 -34.4375 62.6875 C-34.88288104 59.06877013 -34.88288104 59.06877013 -36 56 C-37.98064537 55.2778585 -39.98618889 54.62370607 -42 54 C-44.61787421 52.78957018 -47.14926305 51.43078797 -49.6875 50.0625 C-50.35072266 49.71509766 -51.01394531 49.36769531 -51.69726562 49.00976562 C-57.96671116 45.65722224 -57.96671116 45.65722224 -60 43 C-60.625 40.3125 -60.625 40.3125 -60 37 C-58.01372772 33.98239403 -55.57134912 31.52510183 -53 29 C-52.26265625 28.27554688 -51.5253125 27.55109375 -50.765625 26.8046875 C-41.92367241 18.51174504 -13.55828819 -5.62109453 0 0 Z " fill="#358A4B" transform="translate(95,189)"/>
<path d="M0 0 C3.73673362 1.24557787 3.94571879 2.19622092 5.7421875 5.6015625 C6.50233154 7.0388269 6.50233154 7.0388269 7.27783203 8.50512695 C7.80489746 9.53468506 8.33196289 10.56424316 8.875 11.625 C9.41366699 12.66938232 9.95233398 13.71376465 10.50732422 14.78979492 C14.4952438 22.67386696 17.8425062 30.418617 20 39 C20.17966309 39.70672852 20.35932617 40.41345703 20.54443359 41.14160156 C25.68499762 63.54075254 22.57911879 86.49142021 12.09765625 106.671875 C10.01824496 109.97105269 8.24840295 111.88077831 5 114 C4.34 114 3.68 114 3 114 C-12.81506356 93.0460367 -19.84829563 66.57193559 -16.71142578 40.61181641 C-14.38093487 26.40677049 -8.87075479 11.40525616 0 0 Z " fill="#63C17C" transform="translate(218,48)"/>
<path d="M0 0 C1.15886719 -0.01224609 2.31773437 -0.02449219 3.51171875 -0.03710938 C28.63073919 -0.07968399 49.96041546 10.78018985 67.5 28.1875 C68.19996094 28.85007813 68.89992188 29.51265625 69.62109375 30.1953125 C73.46273332 33.87998185 76.704045 37.64407312 79.5 42.1875 C78.5 45.1875 78.5 45.1875 75.5 47.1875 C49.42157255 52.73173261 24.96329674 47.45562283 2.41503906 33.44970703 C-5.95612659 27.93225083 -13.0755524 20.76045285 -20.1875 13.75 C-20.78836426 13.15872314 -21.38922852 12.56744629 -22.00830078 11.95825195 C-22.56630371 11.39581787 -23.12430664 10.83338379 -23.69921875 10.25390625 C-24.43918091 9.5105603 -24.43918091 9.5105603 -25.1940918 8.75219727 C-26.648155 7.00998543 -27.5608116 5.24626546 -28.5 3.1875 C-20.02535995 -1.04982003 -9.21198334 0.00512346 0 0 Z " fill="#63C27C" transform="translate(129.5,127.8125)"/>
<path d="M0 0 C1.83344817 1.29703686 3.62011468 2.6609957 5.375 4.0625 C20.27651231 15.55657003 36.59725795 22.40768392 55 26 C54.61328125 26.44730469 54.2265625 26.89460938 53.828125 27.35546875 C53.30734375 27.96003906 52.7865625 28.56460938 52.25 29.1875 C51.69054687 29.82429688 51.13109375 30.46109375 50.5546875 31.1171875 C48.85889382 33.06507866 48.85889382 33.06507866 47.375 35.8125 C39.66925106 42.90990034 22.46186794 40.47761878 12.70849609 40.15234375 C-6.63311117 39.06444372 -25.46662226 30.63744085 -42 21 C-39.0054432 16.77500649 -35.67187108 14.19387461 -31.25 11.625 C-30.60256836 11.24214844 -29.95513672 10.85929688 -29.28808594 10.46484375 C-6.72124351 -2.55407253 -6.72124351 -2.55407253 0 0 Z " fill="#3EA259" transform="translate(95,189)"/>
<path d="M0 0 C0.94955586 32.56611392 -3.97507261 61.51427662 -27 86 C-29.3359375 87.875 -29.3359375 87.875 -31 89 C-31.20625 87.906875 -31.4125 86.81375 -31.625 85.6875 C-32.63391177 81.76830713 -32.63391177 81.76830713 -36.0859375 80.26953125 C-37.04757812 79.85058594 -38.00921875 79.43164062 -39 79 C-39.13572155 76.60225255 -39.23436868 74.21224755 -39.3125 71.8125 C-39.35439453 71.13896484 -39.39628906 70.46542969 -39.43945312 69.77148438 C-39.48828125 67.76953125 -39.48828125 67.76953125 -39 64 C-37.34363701 62.32309297 -35.67719821 60.65606815 -34 59 C-32.95371253 52.32790532 -35.70393184 46.53448917 -38.04296875 40.40820312 C-38.32011719 39.64056641 -38.59726562 38.87292969 -38.8828125 38.08203125 C-39.14465332 37.39343018 -39.40649414 36.7048291 -39.67626953 35.99536133 C-40.23739525 32.53677873 -38.32897691 30.45678089 -36.37109375 27.73828125 C-11.50877193 -3.45263158 -11.50877193 -3.45263158 0 0 Z " fill="#3EA259" transform="translate(315,25)"/>
<path d="M0 0 C7.18138 3.78420024 12.44372406 10.33117219 15 18 C15.45537711 24.37527953 15.45537711 24.37527953 13.75 26.71484375 C10.92087733 28.79248071 8.68913412 28.2045154 5.34765625 27.69921875 C-0.07344564 26.08461436 -3.53024676 22.10605915 -6.375 17.375 C-8.80111698 12.33614165 -9.41121743 8.65423964 -9 3 C-6.82808804 -0.74051504 -4.03261537 -0.68478374 0 0 Z " fill="#070001" transform="translate(388,265)"/>
<path d="M0 0 C5.84858809 0.41775629 9.200321 2.10028808 13.38671875 6.203125 C17.93888224 11.51569503 19.56312091 16.27027682 19.55078125 23.2421875 C19.00147427 25.75118427 18.12817993 26.66174308 16.1171875 28.22265625 C12.98834184 28.87753092 11.00247109 28.68915299 8.16015625 27.19140625 C2.89965853 23.57041356 -1.37760418 19.15410536 -3.8828125 13.22265625 C-4.43728405 9.47997327 -4.54635897 5.95510516 -3.8828125 2.22265625 C-1.8828125 0.22265625 -1.8828125 0.22265625 0 0 Z " fill="#050001" transform="translate(407.8828125,164.77734375)"/>
<path d="M0 0 C6.48332256 3.584896 11.63330611 8.89991832 14 16 C14.203125 18.15625 14.203125 18.15625 14.25 20.5 C14.27578125 21.2734375 14.3015625 22.046875 14.328125 22.84375 C13.91836269 25.53647373 13.14554354 26.37182157 11 28 C7.84364858 28.66063169 5.86381604 28.46239564 3.0078125 26.93359375 C-2.89991832 22.84276882 -6.7274257 17.81772289 -9 11 C-9.37310005 7.44119949 -9.65948331 4.17241478 -7.875 1 C-4.91152019 -0.58052256 -3.34057128 -0.56726682 0 0 Z " fill="#040000" transform="translate(225,396)"/>
<path d="M0 0 C5.79892827 2.02600703 10.78851298 7.31929692 13.57421875 12.73046875 C14.85134635 16.9417566 14.80928894 21.43326148 14.19140625 25.765625 C12.19140625 27.765625 12.19140625 27.765625 9.06640625 28.265625 C3.07620658 27.49269601 -0.71933618 24.45844586 -4.390625 19.7265625 C-8.05374503 14.08936914 -9.30426454 9.5810983 -8.80859375 2.765625 C-6.9239966 -1.00356929 -3.88236935 -0.65778634 0 0 Z " fill="#050001" transform="translate(296.80859375,288.234375)"/>
<path d="M0 0 C5.12610232 0.10289621 7.86861911 3.01424646 11.45703125 6.38671875 C15.72135186 11.20615801 17.42238413 15.37082619 17.6875 21.6875 C17.4375 25.625 17.4375 25.625 16.4375 27.6875 C13.00988269 29.29419561 9.90748041 28.7497082 6.4375 27.625 C0.19984813 24.14113694 -3.33175121 18.26745288 -5.5625 11.625 C-6.00993414 8.55355103 -6.1874431 5.67735369 -5.5625 2.625 C-3.5625 0.625 -3.5625 0.625 0 0 Z " fill="#050001" transform="translate(212.5625,234.375)"/>
<path d="M0 0 C5.8998195 3.26225313 11.54553589 8.3586846 13.61328125 14.95703125 C14.37652135 18.98909765 14.94645315 23.31741662 12.875 27 C9.91152019 28.58052256 8.34057128 28.56726682 5 28 C-2.00584912 24.24981017 -6.5064706 18.4805882 -9 11 C-9.37310005 7.44119949 -9.65948331 4.17241478 -7.875 1 C-4.91152019 -0.58052256 -3.34057128 -0.56726682 0 0 Z " fill="#040001" transform="translate(406,437)"/>
<path d="M0 0 C5.79386673 2.02423864 10.79584691 7.31717811 13.5703125 12.73046875 C14.85097083 16.92683975 14.98354141 21.46240428 14.19140625 25.765625 C10.59156485 28.16551927 9.44042497 28.40698632 5.19140625 27.765625 C-0.83618983 24.55090709 -4.91113686 19.90873103 -7.80859375 13.765625 C-9.10603652 9.49315422 -9.86658153 4.88160056 -7.80859375 0.765625 C-5.14136357 -0.56799009 -2.90606223 -0.4923715 0 0 Z " fill="#040001" transform="translate(438.80859375,350.234375)"/>
<path d="M0 0 C5.88985053 0.58898505 9.12468767 3.5181214 13 7.75 C17.46647224 13.25709011 18.31755073 18.45088115 17.75 25.375 C16.6875 27.4375 16.6875 27.4375 14.75 28.375 C8.83831649 28.375 4.85029063 26.45656785 0.75 22.375 C-3.861133 16.64663213 -5.93627483 11.78023716 -5.65625 4.40625 C-4.92824041 0.76620204 -3.55576473 0.41028055 0 0 Z " fill="#040001" transform="translate(179.25,317.625)"/>
<path d="M0 0 C6.30396412 1.57599103 10.09508289 4.56311618 13.625 10 C16.55621082 14.90152802 17.16592395 19.21854566 16.75 24.9375 C15.6875 26.875 15.6875 26.875 13.75 27.9375 C10.625 28.625 10.625 28.625 6.75 27.9375 C0.80790837 24.05960884 -4.3543121 18.91363148 -6.25 11.9375 C-6.67830035 8.55093909 -6.94276331 5.29521764 -6.25 1.9375 C-3.25 -0.0625 -3.25 -0.0625 0 0 Z " fill="#040000" transform="translate(325.25,395.0625)"/>
<path d="M0 0 C4.0638692 -0.54705932 6.39529053 -0.30852524 10.0625 1.5625 C15.07074933 5.71828136 20.47887568 10.71595204 21.30078125 17.47265625 C21.30658203 18.75462891 21.30658203 18.75462891 21.3125 20.0625 C21.33763672 21.34833984 21.33763672 21.34833984 21.36328125 22.66015625 C21 25 21 25 19.6875 26.8125 C18 28 18 28 14.6875 27.9375 C7.41895563 26.08956499 4.15219799 22.27790978 0.19921875 16.21875 C-2.15340387 11.86601498 -2.2683529 7.91980322 -2 3 C-1.34 2.01 -0.68 1.02 0 0 Z " fill="#040000" transform="translate(309,178)"/>
</svg>
